<svg xmlns="http://www.w3.org/2000/svg"
     width="600.000000pt" height="600.000000pt" viewBox="0 0 600.000000 600.000000"
     preserveAspectRatio="xMidYMid meet">
  <g transform="translate(0.000000,600.000000) scale(0.100000,-0.100000)"
     fill="#000000" stroke="none">
    <path d="M2810 5444 c-19 -2 -78 -9 -130 -15 -554 -63 -1101 -358 -1462 -789
-461 -550 -639 -1262 -492 -1964 69 -327 233 -672 454 -951 139 -176 377 -385
581 -512 97 -61 291 -156 403 -197 128 -48 331 -99 481 -122 147 -21 456 -24
595 -5 524 72 968 289 1331 650 142 142 208 222 310 378 174 266 294 585 346
915 24 158 24 499 -1 658 -62 403 -224 777 -473 1094 -84 106 -296 313 -403
393 -323 242 -674 390 -1060 448 -102 15 -410 27 -480 19z m402 -819 c180 -32
343 -94 475 -182 210 -138 358 -365 407 -621 l14 -72 -264 0 c-218 0 -264 2
-264 14 0 7 -18 50 -40 94 -70 140 -212 247 -387 293 -109 29 -297 29 -406 0
-296 -78 -484 -322 -538 -699 -19 -136 -7 -396 24 -514 104 -394 375 -629 726
-629 121 0 212 20 316 71 201 98 331 268 360 473 l7 47 -306 0 -306 0 0 230 0
230 540 0 540 0 0 -725 0 -725 -167 2 -168 3 -22 120 c-13 66 -28 144 -34 173
l-11 53 -48 -63 c-137 -182 -325 -302 -540 -345 -115 -23 -341 -20 -468 6
-497 103 -860 488 -972 1029 -59 281 -43 605 42 872 160 506 551 825 1078 880
106 11 305 4 412 -15z"/>
  </g>
</svg>
